<svg width="18" height="18" viewBox="0 0 18 18" fill="none" xmlns="http://www.w3.org/2000/svg">
<path d="M10.9687 1.5752H7.03123C3.43123 1.5752 0.506226 4.41582 0.506226 7.90332C0.506226 11.3908 2.75623 13.8377 8.26873 16.3127C8.40935 16.3689 8.52185 16.3971 8.66248 16.3971C8.85935 16.3971 9.0281 16.3408 9.19685 16.2283C9.4781 16.0596 9.64685 15.7502 9.64685 15.4127V14.2033H10.9687C14.5687 14.2033 17.5219 11.3627 17.5219 7.8752C17.5219 4.3877 14.5687 1.5752 10.9687 1.5752ZM10.9687 12.9939H9.33748C8.8031 12.9939 8.3531 13.4439 8.3531 13.9783V15.0189C3.59998 12.8252 1.74373 10.8002 1.74373 7.93145C1.74373 5.14707 4.10623 2.86895 7.03123 2.86895H10.9687C13.8656 2.86895 16.2562 5.14707 16.2562 7.93145C16.2562 10.7158 13.8656 12.9939 10.9687 12.9939Z" fill="#64748B"/>
<path d="M5.42812 7.28467C5.0625 7.28467 4.78125 7.56592 4.78125 7.93154C4.78125 8.29717 5.0625 8.57842 5.42812 8.57842C5.79375 8.57842 6.075 8.29717 6.075 7.93154C6.075 7.56592 5.79375 7.28467 5.42812 7.28467Z" fill="#64748B"/>
<path d="M9.00002 7.28467C8.6344 7.28467 8.35315 7.56592 8.35315 7.93154C8.35315 8.29717 8.6344 8.57842 9.00002 8.57842C9.33752 8.57842 9.6469 8.29717 9.6469 7.93154C9.6469 7.56592 9.33752 7.28467 9.00002 7.28467Z" fill="#64748B"/>
<path d="M12.5718 7.28467C12.2062 7.28467 11.9249 7.56592 11.9249 7.93154C11.9249 8.29717 12.2062 8.57842 12.5718 8.57842C12.9374 8.57842 13.2187 8.29717 13.2187 7.93154C13.2187 7.56592 12.9093 7.28467 12.5718 7.28467Z" fill="#64748B"/>
</svg>
